<?xml version="1.0" encoding="UTF-8" standalone="no"?>
<!-- Created with Inkscape (http://www.inkscape.org/) -->

<svg
   xmlns:dc="http://purl.org/dc/elements/1.1/"
   xmlns:cc="http://creativecommons.org/ns#"
   xmlns:rdf="http://www.w3.org/1999/02/22-rdf-syntax-ns#"
   xmlns:svg="http://www.w3.org/2000/svg"
   xmlns="http://www.w3.org/2000/svg"
   xmlns:sodipodi="http://sodipodi.sourceforge.net/DTD/sodipodi-0.dtd"
   xmlns:inkscape="http://www.inkscape.org/namespaces/inkscape"
   version="1.1"
   id="svg2"
   width="148.74278"
   height="163.839"
   viewBox="0 0 148.74278 163.839"
   sodipodi:docname="square-white-left.svg"
   inkscape:version="0.92.5 (2060ec1f9f, 2020-04-08)">
  <metadata
     id="metadata8">
    <rdf:RDF>
      <cc:Work
         rdf:about="">
        <dc:format>image/svg+xml</dc:format>
        <dc:type
           rdf:resource="http://purl.org/dc/dcmitype/StillImage" />
        <dc:title></dc:title>
      </cc:Work>
    </rdf:RDF>
  </metadata>
  <defs
     id="defs6" />
  <sodipodi:namedview
     pagecolor="#ffffff"
     bordercolor="#666666"
     borderopacity="1"
     objecttolerance="10"
     gridtolerance="10"
     guidetolerance="10"
     inkscape:pageopacity="0"
     inkscape:pageshadow="2"
     inkscape:window-width="1920"
     inkscape:window-height="1030"
     id="namedview4"
     showgrid="false"
     inkscape:zoom="2"
     inkscape:cx="92.924274"
     inkscape:cy="-23.35176"
     inkscape:window-x="0"
     inkscape:window-y="0"
     inkscape:window-maximized="1"
     inkscape:current-layer="svg2"
     fit-margin-top="0"
     fit-margin-left="0"
     fit-margin-right="0"
     fit-margin-bottom="0" />
  <path
     style="fill:#ffffff;stroke-width:0.31999999"
     d="m 128.4027,163.11011 c 0.0865,-0.396 1.75186,-6.88753 3.70074,-14.42563 l 3.54344,-13.70564 -0.94688,-1.30712 c -1.13772,-1.57058 -2.07116,-4.46095 -2.70732,-8.38318 -0.66732,-4.11435 -0.61201,-5.09043 0.37727,-6.65755 1.36017,-2.15466 5.35693,-10.48942 6.26886,-13.07297 1.8991,-5.38026 2.28659,-7.500266 2.30443,-12.607906 0.009,-2.64 -0.0978,-5.34 -0.23774,-6 l -0.2545,-1.2 1.8545,-0.007 c 2.05092,-0.008 3.8224,-0.67418 5.4545,-2.05193 1.26858,-1.07088 1.29523,-1.30215 0.16,-1.388 -1.56934,-0.11869 -2.22944,-0.74012 -3.60004,-3.38912 -2.56732,-4.96191 -4.75234,-7.21832 -8.27115,-8.54137 -1.52253,-0.57247 -2.34642,-0.66289 -5.20555,-0.57133 l -3.39674,0.10878 -1.4544,-1.33998 c -1.7568,-1.6186 -4.03635,-2.8144 -6.71703,-3.52359 -2.59528,-0.68659 -7.90291,-0.66446 -11.27509,0.047 -3.21372,0.67803 -9.099558,2.61887 -9.763068,3.21934 -1.74354,1.57788 -7.34065,2.56851 -12.63523,2.23631 -1.40894,-0.0884 -3.8577,-0.23967 -5.4417,-0.33616 -6.85471,-0.41754 -12.25191,-1.09648 -13.72046,-1.72598 -4.06398,-1.74203 -8.67919,-2.77832 -14.14222,-3.17548 -5.554082,-0.40377 -7.750902,-1.52958 -9.728112,-4.98537 -2.02199,-3.53407 -2.44085,-6.62511 -3.21101,-23.6961 -0.46771,-10.36702 -1.41417,-15.18929 -4.01958,-20.48 -0.81002,-1.64487 -2.2441,-3.84065 -3.34391,-5.12 C 30.9356,9.7981341 28.69293,6.7212141 27.011,4.1925241 24.24455,0.03334408 23.91375,-0.34809592 23.542,0.19252408 22.94228,1.0646841 22.37952,2.9486841 21.9431,5.5454041 l -0.384,2.28473 -2.53955,0.19938 C 13.1698,8.4887641 9.4127,11.000354 8.02816,15.377194 7.73738,16.296434 7.12301,16.896414 4.93491,18.398054 1.26291,20.918054 0,22.340704 0,23.957224 c 0,1.47102 0.96198,2.65288 3.24358,3.9849 2.15744,1.25955 6.60832,2.80953 8.29016,2.88697 2.19612,0.10113 3.62511,1.1499 4.76988,3.50074 1.70377,3.49877 1.9438,5.89338 2.25144,22.4603 0.1536,8.272 0.43833,16.192 0.63274,17.6 0.78131,5.65873 1.9204,9.204 3.59857,11.2 0.61216,0.72811 0.86399,1.49687 1.04255,3.18255 0.87807,8.28967 4.63245,13.992466 10.33672,15.701166 1.8366,0.55015 1.89531,0.60283 2.27396,2.0405 0.21377,0.81168 1.05051,2.84378 1.85942,4.51578 1.1366,2.34933 1.93374,3.49439 3.50859,5.04 1.12081,1.1 2.21661,2.00221 2.43511,2.0049 0.91929,0.0113 1.27812,0.73804 2.30205,4.66212 2.652602,10.16571 5.944262,17.70503 9.822852,22.4985 l 1.55238,1.91857 v 4.97795 4.97796 h -6.72 H 44.48 v 3.36443 3.36444 l 10.320002,-0.0844 10.32,-0.0844 0.0721,-19.2 c 0.0396,-10.56 0.0756,-19.38 0.08,-19.6 0.006,-0.31402 3.13748,-0.4 14.56792,-0.4 6.17638,-0.17802 -0.0352,-0.0243 20.301108,10e-6 3.00239,0 5.45889,0.12553 5.45889,0.27894 0,0.15342 0.6968,1.34142 1.54844,2.64 2.86275,4.36514 7.25826,8.05574 14.07343,11.81647 l 3.62186,1.99862 -0.18887,4.03298 c -0.10389,2.21815 -0.27223,5.79699 -0.37409,7.95299 l -0.18521,3.92 h -7.16778 -7.16778 v 3.36 3.36 h 9.24269 9.2427 z"
     id="path4520"
     inkscape:connector-curvature="0"
     sodipodi:nodetypes="ccccscsccccscccccccsccccccsccccccccssccsscccscsscsccccccccccccccsccccccccccccc" />
</svg>
