<?xml version="1.0" encoding="UTF-8" standalone="no"?>
<svg
   xmlns:dc="http://purl.org/dc/elements/1.1/"
   xmlns:cc="http://creativecommons.org/ns#"
   xmlns:rdf="http://www.w3.org/1999/02/22-rdf-syntax-ns#"
   xmlns:svg="http://www.w3.org/2000/svg"
   xmlns="http://www.w3.org/2000/svg"
   xmlns:sodipodi="http://sodipodi.sourceforge.net/DTD/sodipodi-0.dtd"
   xmlns:inkscape="http://www.inkscape.org/namespaces/inkscape"
   viewBox="0 0 64 64"
   width="512"
   height="512"
   version="1.1"
   id="svg167"
   sodipodi:docname="square-black-left.svg"
   inkscape:version="0.92.5 (2060ec1f9f, 2020-04-08)">
  <metadata
     id="metadata173">
    <rdf:RDF>
      <cc:Work
         rdf:about="">
        <dc:format>image/svg+xml</dc:format>
        <dc:type
           rdf:resource="http://purl.org/dc/dcmitype/StillImage" />
        <dc:title></dc:title>
      </cc:Work>
    </rdf:RDF>
  </metadata>
  <defs
     id="defs171" />
  <sodipodi:namedview
     pagecolor="#ffffff"
     bordercolor="#666666"
     borderopacity="1"
     objecttolerance="10"
     gridtolerance="10"
     guidetolerance="10"
     inkscape:pageopacity="0"
     inkscape:pageshadow="2"
     inkscape:window-width="750"
     inkscape:window-height="480"
     id="namedview169"
     showgrid="false"
     inkscape:zoom="0.4609375"
     inkscape:cx="256"
     inkscape:cy="256"
     inkscape:window-x="0"
     inkscape:window-y="0"
     inkscape:window-maximized="0"
     inkscape:current-layer="svg167" />
  <path
     style="fill:#000000;stroke-width:0.11899446"
     d="m 52.091957,62.191352 c 0.03216,-0.147257 0.651444,-2.56118 1.376149,-5.364282 l 1.317657,-5.096549 -0.352106,-0.486061 c -0.423069,-0.584033 -0.770177,-1.658838 -1.006737,-3.117351 -0.24815,-1.529952 -0.227582,-1.892914 0.140284,-2.47566 0.505789,-0.801227 1.992014,-3.90057 2.331124,-4.861284 0.706194,-2.000691 0.850285,-2.789031 0.856921,-4.688348 0.0034,-0.981703 -0.03637,-1.985718 -0.0884,-2.231145 l -0.09464,-0.446229 0.689609,-0.0026 c 0.762651,-0.003 1.421388,-0.2507 2.028299,-0.763026 0.47173,-0.398216 0.481639,-0.484214 0.0595,-0.516138 -0.583571,-0.04414 -0.829033,-0.275219 -1.338702,-1.26027 -0.954679,-1.845125 -1.767196,-2.684189 -3.07569,-3.176175 -0.566166,-0.212877 -0.872536,-0.2465 -1.935726,-0.212453 l -1.263103,0.04046 -0.540831,-0.49828 c -0.653278,-0.601889 -1.500948,-1.046557 -2.497779,-1.310276 -0.965073,-0.255313 -2.938756,-0.247084 -4.192727,0.01747 -1.195048,0.25213 -3.383742,0.973848 -3.630472,1.197138 -0.648349,0.586746 -2.729677,0.955118 -4.698508,0.831588 -0.523925,-0.03288 -1.434515,-0.08913 -2.023539,-0.125003 -2.54898,-0.15524 -4.555969,-0.407703 -5.102063,-0.641789 C 27.539252,26.357261 25.823053,25.971908 23.791581,25.824222 21.726254,25.674076 20.90935,25.25544 20.17411,23.970378 19.422216,22.656207 19.266459,21.50678 18.98007,15.158801 18.806149,11.303746 18.4542,9.5105476 17.485358,7.5431567 17.184146,6.9314981 16.650872,6.1149806 16.2419,5.6392455 15.848061,5.1811169 15.014107,4.0369401 14.388668,3.0966267 13.359943,1.5500033 13.236933,1.4081629 13.098694,1.6091967 12.875683,1.9335155 12.666417,2.6340954 12.504131,3.5997059 l -0.1428,0.8495937 -0.944352,0.074141 C 9.2417057,4.6942171 7.8445994,5.6281709 7.3297468,7.255733 7.22161,7.597559 6.9931607,7.8206659 6.1794992,8.3790621 4.8140372,9.3161436 4.3444148,9.8451675 4.3444148,10.446283 c 0,0.547009 0.3577195,0.986494 1.20615,1.481815 0.8022608,0.468373 2.4573549,1.044745 3.0827592,1.073543 0.8166449,0.0376 1.3480247,0.427598 1.773717,1.301776 0.633559,1.301045 0.722816,2.191499 0.837214,8.352034 0.05712,3.076008 0.162998,6.02112 0.235291,6.544696 0.290536,2.104243 0.714114,3.422579 1.338155,4.164806 0.227637,0.270753 0.321281,0.556622 0.387681,1.183456 0.326516,3.082579 1.722611,5.203206 3.843788,5.838599 0.682953,0.204577 0.704786,0.224166 0.84559,0.758777 0.0795,0.301827 0.390639,1.057481 0.691439,1.679226 0.422653,0.873616 0.719076,1.299415 1.304697,1.874163 0.416781,0.409042 0.824262,0.744537 0.905513,0.745537 0.341847,0.0042 0.475281,0.274446 0.856036,1.733644 0.98639,3.780199 2.21042,6.583751 3.652704,8.366241 l 0.577264,0.713435 v 1.851088 1.851094 h -2.498885 -2.498884 v 1.251087 1.251095 l 3.837572,-0.03139 3.837572,-0.03139 0.02681,-7.139666 c 0.01475,-3.926818 0.02811,-7.206603 0.02974,-7.288413 0.0022,-0.116772 1.166697,-0.148748 5.417194,-0.148748 2.296734,-0.0662 -0.01304,-0.009 7.549123,4e-6 1.116461,0 2.029931,0.04668 2.029931,0.103727 0,0.05704 0.259109,0.498816 0.575797,0.981703 1.064537,1.62321 2.699041,2.995589 5.233314,4.394045 l 1.346816,0.743201 -0.07023,1.499696 c -0.03864,0.824835 -0.101226,2.155654 -0.139104,2.957379 l -0.06888,1.457682 h -2.665394 -2.665394 v 1.249442 1.249442 h 3.436965 3.436971 z"
     id="path4520"
     inkscape:connector-curvature="0"
     sodipodi:nodetypes="ccccscsccccscccccccsccccccsccccccccssccsscccscsscsccccccccccccccsccccccccccccc" />
</svg>
